<svg width="14" height="14" viewBox="0 0 14 14" fill="none" xmlns="http://www.w3.org/2000/svg">
<g clip-path="url(#clip0_2_11130)">
<path d="M4.87548 0.460787C3.47667 0.94605 2.27033 1.86709 1.43366 3.08863C0.596995 4.31017 0.1741 5.76782 0.227093 7.24747C0.280086 8.72712 0.806175 10.1508 1.72808 11.3093C2.64999 12.4679 3.91913 13.3003 5.34908 13.6842C6.50837 13.9834 7.72296 13.9965 8.88845 13.7225C9.94427 13.4853 10.9204 12.9781 11.7213 12.2503C12.5548 11.4698 13.1598 10.4768 13.4713 9.37813C13.8098 8.18339 13.87 6.92696 13.6474 5.70532H7.13736V8.40579H10.9075C10.8322 8.83649 10.6707 9.24757 10.4328 9.61442C10.1948 9.98126 9.88536 10.2963 9.52283 10.5408C9.06245 10.8453 8.54348 11.0502 7.99923 11.1424C7.45339 11.2438 6.89351 11.2438 6.34767 11.1424C5.79444 11.028 5.27109 10.7996 4.81095 10.4719C4.07174 9.94862 3.51669 9.20524 3.22502 8.34782C2.92841 7.47434 2.92841 6.52739 3.22502 5.65391C3.43264 5.04165 3.77586 4.48419 4.22908 4.02313C4.74772 3.48582 5.40435 3.10175 6.1269 2.91306C6.84946 2.72436 7.61003 2.73834 8.32517 2.95344C8.88383 3.12493 9.39469 3.42456 9.81705 3.82844C10.2422 3.40553 10.6665 2.98152 11.0902 2.55641C11.3089 2.32782 11.5474 2.11016 11.7628 1.8761C11.1181 1.27615 10.3614 0.809318 9.53595 0.50235C8.03282 -0.0434428 6.38812 -0.0581104 4.87548 0.460787Z" fill="white"/>
<path d="M4.87594 0.460342C6.38844 -0.0589081 8.03314 -0.0446265 9.53641 0.500811C10.362 0.809865 11.1184 1.27895 11.7622 1.88112C11.5434 2.11519 11.3127 2.33394 11.0895 2.56144C10.6652 2.98508 10.2411 3.40727 9.8175 3.828C9.39514 3.42412 8.88428 3.12449 8.32562 2.953C7.61072 2.73714 6.85018 2.72236 6.12743 2.91028C5.40468 3.0982 4.74765 3.48157 4.22844 4.01831C3.77522 4.47937 3.432 5.03683 3.22437 5.64909L0.957031 3.89362C1.7686 2.28424 3.17379 1.05318 4.87594 0.460342Z" fill="#F6417D"/>
<path d="M0.358278 5.63262C0.480145 5.02864 0.68247 4.44374 0.959841 3.89355L3.22718 5.6534C2.93058 6.52687 2.93058 7.47383 3.22718 8.34731C2.47177 8.93064 1.71599 9.51689 0.959841 10.1061C0.265474 8.7239 0.0537045 7.1491 0.358278 5.63262Z" fill="#F8BD00"/>
<path d="M7.1372 5.7041H13.6472C13.8699 6.92575 13.8096 8.18218 13.4711 9.37691C13.1597 10.4756 12.5546 11.4685 11.7211 12.2491C10.9894 11.6782 10.2544 11.1116 9.52267 10.5407C9.88544 10.296 10.1951 9.98055 10.433 9.61331C10.6709 9.24607 10.8323 8.83457 10.9074 8.40348H7.1372C7.13611 7.50441 7.1372 6.60426 7.1372 5.7041Z" fill="#587DBD"/>
<path d="M0.957031 10.1064C1.71318 9.52307 2.46896 8.93682 3.22438 8.34766C3.51663 9.20537 4.07247 9.94879 4.8125 10.4717C5.27407 10.7979 5.79855 11.0244 6.3525 11.1367C6.89834 11.2382 7.45822 11.2382 8.00406 11.1367C8.54831 11.0446 9.06728 10.8397 9.52766 10.5352C10.2594 11.1061 10.9944 11.6727 11.7261 12.2436C10.9254 12.9717 9.94921 13.4794 8.89328 13.7169C7.72779 13.9909 6.5132 13.9777 5.35391 13.6786C4.43702 13.4338 3.58058 13.0022 2.83828 12.4109C2.0526 11.7872 1.41089 11.0011 0.957031 10.1064Z" fill="#319F43"/>
</g>
<defs>
<clipPath id="clip0_2_11130">
<rect width="14" height="14" fill="white"/>
</clipPath>
</defs>
</svg>
