<svg width="50" height="50" viewBox="0 0 50 50" fill="none" xmlns="http://www.w3.org/2000/svg">
<path d="M17.9688 25C19.2632 25 20.3125 23.9507 20.3125 22.6562C20.3125 21.3618 19.2632 20.3125 17.9688 20.3125C16.6743 20.3125 15.625 21.3618 15.625 22.6562C15.625 23.9507 16.6743 25 17.9688 25Z" fill="#F6417D"/>
<path d="M25.0049 37.5001C20.5694 37.5001 16.8389 34.6163 15.6582 30.6808C15.6252 30.5636 15.62 30.4404 15.643 30.3209C15.666 30.2015 15.7167 30.089 15.7908 29.9925C15.865 29.8961 15.9607 29.8183 16.0702 29.7653C16.1798 29.7124 16.3002 29.6858 16.4219 29.6876H33.5791C33.7008 29.6858 33.8212 29.7124 33.9308 29.7653C34.0403 29.8183 34.136 29.8961 34.2102 29.9925C34.2844 30.089 34.335 30.2015 34.358 30.3209C34.381 30.4404 34.3758 30.5636 34.3428 30.6808C33.1719 34.6163 29.4404 37.5001 25.0049 37.5001Z" fill="#F6417D"/>
<path d="M32.0312 25C33.3257 25 34.375 23.9507 34.375 22.6562C34.375 21.3618 33.3257 20.3125 32.0312 20.3125C30.7368 20.3125 29.6875 21.3618 29.6875 22.6562C29.6875 23.9507 30.7368 25 32.0312 25Z" fill="#F6417D"/>
<path fill-rule="evenodd" clip-rule="evenodd" d="M25 6.25C14.6447 6.25 6.25 14.6447 6.25 25C6.25 35.3553 14.6447 43.75 25 43.75C35.3553 43.75 43.75 35.3553 43.75 25C43.75 14.6447 35.3553 6.25 25 6.25ZM3.125 25C3.125 12.9188 12.9188 3.125 25 3.125C37.0812 3.125 46.875 12.9188 46.875 25C46.875 37.0812 37.0812 46.875 25 46.875C12.9188 46.875 3.125 37.0812 3.125 25Z" fill="#F6417D"/>
</svg>
